<svg xmlns="http://www.w3.org/2000/svg" xmlns:xlink="http://www.w3.org/1999/xlink" width="553" zoomAndPan="magnify" viewBox="0 0 414.75 414.749985" height="553" preserveAspectRatio="xMidYMid meet" version="1.0"><defs><clipPath id="910c94e31a"><path d="M 0 0 L 414.5 0 L 414.5 414.5 L 0 414.5 Z M 0 0 " clip-rule="nonzero"/></clipPath><clipPath id="8d956fc8f3"><path d="M 0 0 L 414.34375 0 L 414.34375 414.34375 L 0 414.34375 Z M 0 0 " clip-rule="nonzero"/></clipPath><clipPath id="0be6260ee0"><path d="M 35.230469 0 L 379.117188 0 C 398.574219 0 414.34375 15.773438 414.34375 35.230469 L 414.34375 379.117188 C 414.34375 398.574219 398.574219 414.34375 379.117188 414.34375 L 35.230469 414.34375 C 15.773438 414.34375 0 398.574219 0 379.117188 L 0 35.230469 C 0 15.773438 15.773438 0 35.230469 0 Z M 35.230469 0 " clip-rule="nonzero"/></clipPath><clipPath id="e88c862377"><path d="M 0 0 L 414.34375 0 L 414.34375 414.34375 L 0 414.34375 Z M 0 0 " clip-rule="nonzero"/></clipPath><clipPath id="66ef6bc404"><path d="M 35.230469 0 L 379.117188 0 C 398.574219 0 414.34375 15.773438 414.34375 35.230469 L 414.34375 379.117188 C 414.34375 398.574219 398.574219 414.34375 379.117188 414.34375 L 35.230469 414.34375 C 15.773438 414.34375 0 398.574219 0 379.117188 L 0 35.230469 C 0 15.773438 15.773438 0 35.230469 0 Z M 35.230469 0 " clip-rule="nonzero"/></clipPath><clipPath id="0b25efb8b9"><rect x="0" width="415" y="0" height="415"/></clipPath><clipPath id="4000e1ffd2"><path d="M 5.464844 65.40625 L 408.722656 65.40625 L 408.722656 321.75 L 5.464844 321.75 Z M 5.464844 65.40625 " clip-rule="nonzero"/></clipPath><clipPath id="9995a97534"><path d="M 135 108 L 238 108 L 238 210 L 135 210 Z M 135 108 " clip-rule="nonzero"/></clipPath><clipPath id="0c70cd7cf2"><path d="M 178.089844 88.183594 L 321.824219 201.273438 L 205.492188 349.128906 L 61.757812 236.039062 Z M 178.089844 88.183594 " clip-rule="nonzero"/></clipPath><clipPath id="59699c6f64"><path d="M 178.089844 88.183594 L 321.824219 201.273438 L 205.492188 349.128906 L 61.757812 236.039062 Z M 178.089844 88.183594 " clip-rule="nonzero"/></clipPath><clipPath id="cca6a07f02"><path d="M 110 200 L 211 200 L 211 301 L 110 301 Z M 110 200 " clip-rule="nonzero"/></clipPath><clipPath id="0c51c49122"><path d="M 178.089844 88.183594 L 321.824219 201.273438 L 205.492188 349.128906 L 61.757812 236.039062 Z M 178.089844 88.183594 " clip-rule="nonzero"/></clipPath><clipPath id="ef0e4be507"><path d="M 178.089844 88.183594 L 321.824219 201.273438 L 205.492188 349.128906 L 61.757812 236.039062 Z M 178.089844 88.183594 " clip-rule="nonzero"/></clipPath><clipPath id="3806009e13"><path d="M 203 202 L 281 202 L 281 280 L 203 280 Z M 203 202 " clip-rule="nonzero"/></clipPath><clipPath id="8da4a87e1d"><path d="M 178.089844 88.183594 L 321.824219 201.273438 L 205.492188 349.128906 L 61.757812 236.039062 Z M 178.089844 88.183594 " clip-rule="nonzero"/></clipPath><clipPath id="71ae3a473e"><path d="M 178.089844 88.183594 L 321.824219 201.273438 L 205.492188 349.128906 L 61.757812 236.039062 Z M 178.089844 88.183594 " clip-rule="nonzero"/></clipPath></defs><g clip-path="url(#910c94e31a)"><path fill="#ffffff" d="M 0 0 L 414.5 0 L 414.5 414.5 L 0 414.5 Z M 0 0 " fill-opacity="1" fill-rule="nonzero"/></g><g clip-path="url(#8d956fc8f3)"><g clip-path="url(#0be6260ee0)"><g transform="matrix(1, 0, 0, 1, 0, 0)"><g clip-path="url(#0b25efb8b9)"><g clip-path="url(#e88c862377)"><g clip-path="url(#66ef6bc404)"><path fill="#ffffff" d="M 0 0 L 414.34375 0 L 414.34375 414.34375 L 0 414.34375 Z M 0 0 " fill-opacity="1" fill-rule="nonzero"/></g></g></g></g></g></g><g clip-path="url(#4000e1ffd2)"><path fill="#000000" d="M 337.21875 321.355469 L 76.324219 321.355469 C 37.03125 321.355469 5.464844 289.734375 5.464844 250.367188 C 5.464844 212.292969 35.742188 180.671875 73.75 179.378906 C 73.105469 174.21875 72.460938 169.054688 72.460938 163.246094 C 72.460938 109.039062 116.265625 65.800781 169.730469 65.800781 C 201.941406 65.800781 231.574219 81.933594 250.253906 107.75 C 261.207031 101.941406 273.445312 98.714844 286.328125 98.714844 C 328.199219 98.714844 362.984375 132.917969 362.984375 175.507812 C 362.984375 178.089844 362.984375 181.316406 362.339844 183.898438 C 389.398438 194.222656 408.722656 220.683594 408.722656 250.367188 C 408.078125 289.734375 375.871094 321.355469 337.21875 321.355469 Z M 76.324219 200.675781 C 48.625 200.675781 26.722656 223.265625 26.722656 250.367188 C 26.722656 277.472656 49.269531 300.058594 76.324219 300.058594 L 337.21875 300.058594 C 364.917969 300.058594 386.820312 277.472656 386.820312 250.367188 C 386.820312 227.136719 370.070312 206.484375 347.523438 201.324219 L 336.574219 198.742188 L 339.152344 187.769531 C 340.4375 183.253906 341.082031 178.734375 341.082031 174.21875 C 341.082031 143.886719 316.605469 118.71875 285.683594 118.71875 C 273.445312 118.71875 262.492188 122.589844 252.832031 129.691406 L 243.167969 137.433594 L 237.371094 127.753906 C 223.84375 102.585938 198.074219 87.097656 169.730469 87.097656 C 127.859375 87.097656 93.71875 121.300781 93.71875 163.246094 C 93.71875 170.992188 95.007812 178.734375 97.582031 186.480469 L 102.09375 200.675781 Z M 76.324219 200.675781 " fill-opacity="1" fill-rule="nonzero"/></g><g clip-path="url(#9995a97534)"><g clip-path="url(#0c70cd7cf2)"><g clip-path="url(#59699c6f64)"><path fill="#d73f23" d="M 158.363281 181.609375 L 150.507812 194.710938 L 160.269531 202.390625 L 171.15625 191.675781 C 174.828125 193.402344 178.707031 194.464844 182.632812 194.886719 L 186.347656 209.722656 L 198.683594 208.25 L 198.800781 192.960938 C 202.515625 191.628906 206.039062 189.679688 209.203125 187.136719 L 222.304688 194.992188 L 229.980469 185.234375 L 219.265625 174.34375 C 220.996094 170.671875 222.0625 166.785156 222.480469 162.863281 L 237.316406 159.148438 L 235.84375 146.8125 L 220.546875 146.695312 C 219.21875 142.976562 217.273438 139.457031 214.730469 136.292969 L 222.585938 123.191406 L 212.824219 115.511719 L 201.9375 126.226562 C 198.265625 124.5 194.382812 123.433594 190.457031 123.019531 L 186.742188 108.183594 L 174.414062 109.652344 L 174.289062 124.949219 C 170.570312 126.277344 167.046875 128.226562 163.882812 130.769531 L 150.78125 122.914062 L 143.101562 132.675781 L 153.820312 143.5625 C 152.089844 147.234375 151.03125 151.113281 150.613281 155.039062 L 135.777344 158.757812 L 137.25 171.089844 L 152.539062 171.207031 C 153.871094 174.921875 155.820312 178.449219 158.363281 181.609375 Z M 171.042969 146.753906 C 177.765625 138.210938 190.195312 136.726562 198.742188 143.449219 C 207.289062 150.175781 208.769531 162.601562 202.042969 171.148438 C 195.320312 179.695312 182.898438 181.175781 174.351562 174.453125 C 165.804688 167.726562 164.316406 155.300781 171.042969 146.753906 Z M 171.042969 146.753906 " fill-opacity="1" fill-rule="nonzero"/></g></g></g><g clip-path="url(#cca6a07f02)"><g clip-path="url(#0c51c49122)"><g clip-path="url(#ef0e4be507)"><path fill="#e0a11b" d="M 210.269531 259.867188 L 196.367188 253.496094 C 196.675781 249.558594 196.339844 245.546875 195.316406 241.617188 L 207.847656 232.882812 L 202.089844 221.882812 L 187.765625 227.199219 C 186.21875 225.398438 184.515625 223.769531 182.683594 222.335938 C 181.386719 221.316406 180.023438 220.390625 178.609375 219.566406 C 178.609375 219.566406 178.605469 219.566406 178.605469 219.566406 L 181.292969 204.515625 L 169.445312 200.804688 L 163.070312 214.707031 C 159.132812 214.398438 155.121094 214.730469 151.191406 215.761719 L 142.453125 203.226562 L 131.453125 208.988281 L 136.773438 223.3125 C 133.691406 225.957031 131.128906 229.058594 129.140625 232.464844 L 114.085938 229.78125 L 110.378906 241.636719 L 124.28125 248.003906 C 124.28125 248.003906 124.28125 248.007812 124.28125 248.007812 C 123.976562 251.941406 124.3125 255.949219 125.332031 259.875 C 125.332031 259.878906 125.332031 259.878906 125.332031 259.878906 L 112.804688 268.617188 L 118.5625 279.621094 L 132.886719 274.300781 C 134.414062 276.09375 136.105469 277.703125 137.921875 279.132812 L 137.964844 279.167969 C 139.261719 280.1875 140.621094 281.105469 142.035156 281.929688 L 139.355469 296.988281 L 151.203125 300.695312 L 157.578125 286.785156 C 161.507812 287.097656 165.523438 286.769531 169.453125 285.742188 L 178.1875 298.269531 L 189.191406 292.511719 L 183.875 278.191406 C 186.957031 275.546875 189.511719 272.445312 191.503906 269.035156 L 206.5625 271.71875 Z M 142.847656 259.898438 C 137.804688 250.265625 141.542969 238.320312 151.175781 233.273438 C 158.257812 229.566406 166.597656 230.605469 172.519531 235.25 L 172.542969 235.269531 C 174.660156 236.933594 176.472656 239.066406 177.796875 241.601562 C 181.515625 248.699219 180.464844 257.046875 175.804688 262.96875 C 174.140625 265.085938 172.007812 266.898438 169.46875 268.226562 C 162.386719 271.933594 154.050781 270.898438 148.128906 266.253906 C 146 264.578125 144.179688 262.445312 142.847656 259.898438 Z M 142.847656 259.898438 " fill-opacity="1" fill-rule="nonzero"/></g></g></g><g clip-path="url(#3806009e13)"><g clip-path="url(#8da4a87e1d)"><g clip-path="url(#71ae3a473e)"><path fill="#338b8c" d="M 254.183594 267.519531 C 256.292969 266.558594 258.277344 265.347656 260.105469 263.917969 C 260.105469 263.917969 260.105469 263.914062 260.105469 263.914062 L 268.824219 268.253906 L 276.148438 258.226562 L 269.359375 251.238281 C 270.175781 249.0625 270.726562 246.804688 270.992188 244.496094 L 280.234375 241.398438 L 278.320312 229.128906 L 268.574219 228.988281 C 267.613281 226.875 266.402344 224.894531 264.96875 223.074219 L 269.308594 214.347656 L 265.386719 211.480469 L 259.28125 207.023438 L 252.296875 213.808594 C 250.117188 212.996094 247.859375 212.445312 245.550781 212.171875 L 242.457031 202.9375 L 230.1875 204.851562 L 230.046875 214.597656 C 227.933594 215.558594 225.941406 216.769531 224.121094 218.207031 L 215.394531 213.863281 L 208.070312 223.894531 L 214.871094 230.886719 C 214.046875 233.058594 213.503906 235.320312 213.226562 237.621094 L 203.988281 240.71875 L 205.910156 252.988281 L 215.652344 253.125 C 216.609375 255.242188 217.820312 257.226562 219.253906 259.046875 L 214.917969 267.769531 L 218.84375 270.636719 L 224.949219 275.09375 L 231.929688 268.308594 C 234.105469 269.117188 236.367188 269.671875 238.671875 269.941406 L 241.769531 279.179688 L 254.039062 277.265625 L 254.179688 267.523438 C 254.179688 267.519531 254.179688 267.519531 254.183594 267.519531 Z M 244.054688 253.546875 C 240.722656 254.070312 237.382812 253.257812 234.660156 251.265625 C 234.535156 251.175781 234.417969 251.085938 234.300781 250.992188 C 231.773438 249.011719 230.113281 246.191406 229.621094 243.003906 C 229.101562 239.667969 229.910156 236.332031 231.90625 233.605469 C 233.898438 230.878906 236.828125 229.089844 240.164062 228.570312 C 243.5 228.050781 246.835938 228.859375 249.566406 230.851562 C 249.6875 230.9375 249.8125 231.035156 249.929688 231.128906 C 249.933594 231.128906 249.933594 231.128906 249.9375 231.132812 C 252.453125 233.113281 254.105469 235.925781 254.601562 239.109375 C 255.121094 242.445312 254.308594 245.785156 252.320312 248.511719 C 250.328125 251.238281 247.394531 253.023438 244.054688 253.546875 Z M 244.054688 253.546875 " fill-opacity="1" fill-rule="nonzero"/></g></g></g></svg>