<svg xmlns="http://www.w3.org/2000/svg" xmlns:xlink="http://www.w3.org/1999/xlink" width="1000" zoomAndPan="magnify" viewBox="0 0 750 749.999995" height="1000" preserveAspectRatio="xMidYMid meet" version="1.0"><defs><clipPath id="bdf748db48"><path d="M 167.703125 167.703125 L 582.296875 167.703125 L 582.296875 582.296875 L 167.703125 582.296875 Z M 167.703125 167.703125 " clip-rule="nonzero"/></clipPath><clipPath id="0138388f46"><path d="M 202.953125 167.703125 L 547.046875 167.703125 C 566.515625 167.703125 582.296875 183.484375 582.296875 202.953125 L 582.296875 547.046875 C 582.296875 566.515625 566.515625 582.296875 547.046875 582.296875 L 202.953125 582.296875 C 183.484375 582.296875 167.703125 566.515625 167.703125 547.046875 L 167.703125 202.953125 C 167.703125 183.484375 183.484375 167.703125 202.953125 167.703125 Z M 202.953125 167.703125 " clip-rule="nonzero"/></clipPath><clipPath id="815edebf39"><path d="M 0.703125 0.703125 L 415.296875 0.703125 L 415.296875 415.296875 L 0.703125 415.296875 Z M 0.703125 0.703125 " clip-rule="nonzero"/></clipPath><clipPath id="e6c1dacf94"><path d="M 35.953125 0.703125 L 380.046875 0.703125 C 399.515625 0.703125 415.296875 16.484375 415.296875 35.953125 L 415.296875 380.046875 C 415.296875 399.515625 399.515625 415.296875 380.046875 415.296875 L 35.953125 415.296875 C 16.484375 415.296875 0.703125 399.515625 0.703125 380.046875 L 0.703125 35.953125 C 0.703125 16.484375 16.484375 0.703125 35.953125 0.703125 Z M 35.953125 0.703125 " clip-rule="nonzero"/></clipPath><clipPath id="2337fae478"><rect x="0" width="416" y="0" height="416"/></clipPath><clipPath id="76941c9394"><path d="M 173.171875 233.148438 L 576.671875 233.148438 L 576.671875 489.648438 L 173.171875 489.648438 Z M 173.171875 233.148438 " clip-rule="nonzero"/></clipPath><clipPath id="df086e34cd"><path d="M 303 275 L 406 275 L 406 378 L 303 378 Z M 303 275 " clip-rule="nonzero"/></clipPath><clipPath id="b6ffce6e17"><path d="M 345.902344 255.9375 L 489.722656 369.097656 L 373.316406 517.042969 L 229.496094 403.886719 Z M 345.902344 255.9375 " clip-rule="nonzero"/></clipPath><clipPath id="f5bef34515"><path d="M 345.902344 255.9375 L 489.722656 369.097656 L 373.316406 517.042969 L 229.496094 403.886719 Z M 345.902344 255.9375 " clip-rule="nonzero"/></clipPath><clipPath id="67314177e7"><path d="M 278 368 L 379 368 L 379 469 L 278 469 Z M 278 368 " clip-rule="nonzero"/></clipPath><clipPath id="97d17d5b2a"><path d="M 345.902344 255.9375 L 489.722656 369.097656 L 373.316406 517.042969 L 229.496094 403.886719 Z M 345.902344 255.9375 " clip-rule="nonzero"/></clipPath><clipPath id="58459b0479"><path d="M 345.902344 255.9375 L 489.722656 369.097656 L 373.316406 517.042969 L 229.496094 403.886719 Z M 345.902344 255.9375 " clip-rule="nonzero"/></clipPath><clipPath id="3b5218251f"><path d="M 371 370 L 449 370 L 449 448 L 371 448 Z M 371 370 " clip-rule="nonzero"/></clipPath><clipPath id="d0e2e13897"><path d="M 345.902344 255.9375 L 489.722656 369.097656 L 373.316406 517.042969 L 229.496094 403.886719 Z M 345.902344 255.9375 " clip-rule="nonzero"/></clipPath><clipPath id="d57c8bd0bb"><path d="M 345.902344 255.9375 L 489.722656 369.097656 L 373.316406 517.042969 L 229.496094 403.886719 Z M 345.902344 255.9375 " clip-rule="nonzero"/></clipPath></defs><g clip-path="url(#bdf748db48)"><g clip-path="url(#0138388f46)"><g transform="matrix(1, 0, 0, 1, 167, 167)"><g clip-path="url(#2337fae478)"><g clip-path="url(#815edebf39)"><g clip-path="url(#e6c1dacf94)"><path fill="#ffffff" d="M 0.703125 0.703125 L 415.296875 0.703125 L 415.296875 415.296875 L 0.703125 415.296875 Z M 0.703125 0.703125 " fill-opacity="1" fill-rule="nonzero"/></g></g></g></g></g></g><g clip-path="url(#76941c9394)"><path fill="#000000" d="M 505.125 489.25 L 244.074219 489.25 C 204.753906 489.25 173.171875 457.609375 173.171875 418.222656 C 173.171875 380.125 203.464844 348.484375 241.496094 347.191406 C 240.851562 342.027344 240.207031 336.859375 240.207031 331.046875 C 240.207031 276.808594 284.039062 233.542969 337.535156 233.542969 C 369.765625 233.542969 399.414062 249.6875 418.105469 275.515625 C 429.066406 269.703125 441.3125 266.476562 454.203125 266.476562 C 496.101562 266.476562 530.90625 300.699219 530.90625 343.316406 C 530.90625 345.898438 530.90625 349.128906 530.261719 351.710938 C 557.335938 362.042969 576.671875 388.519531 576.671875 418.222656 C 576.027344 457.609375 543.796875 489.25 505.125 489.25 Z M 244.074219 368.5 C 216.355469 368.5 194.441406 391.101562 194.441406 418.222656 C 194.441406 445.34375 217.003906 467.941406 244.074219 467.941406 L 505.125 467.941406 C 532.839844 467.941406 554.757812 445.34375 554.757812 418.222656 C 554.757812 394.976562 537.996094 374.3125 515.4375 369.144531 L 504.480469 366.5625 L 507.058594 355.585938 C 508.347656 351.066406 508.992188 346.546875 508.992188 342.027344 C 508.992188 311.675781 484.496094 286.492188 453.558594 286.492188 C 441.3125 286.492188 430.355469 290.367188 420.6875 297.46875 L 411.015625 305.21875 L 405.214844 295.535156 C 391.679688 270.351562 365.898438 254.851562 337.535156 254.851562 C 295.640625 254.851562 261.476562 289.074219 261.476562 331.046875 C 261.476562 338.796875 262.765625 346.546875 265.34375 354.292969 L 269.855469 368.5 Z M 244.074219 368.5 " fill-opacity="1" fill-rule="nonzero"/></g><g clip-path="url(#df086e34cd)"><g clip-path="url(#b6ffce6e17)"><g clip-path="url(#f5bef34515)"><path fill="#d73f23" d="M 326.164062 349.421875 L 318.300781 362.53125 L 328.070312 370.214844 L 338.960938 359.492188 C 342.636719 361.222656 346.519531 362.285156 350.445312 362.707031 L 354.164062 377.550781 L 366.503906 376.078125 L 366.621094 360.777344 C 370.339844 359.449219 373.867188 357.496094 377.03125 354.949219 L 390.140625 362.8125 L 397.820312 353.046875 L 387.101562 342.152344 C 388.832031 338.476562 389.898438 334.589844 390.316406 330.664062 L 405.160156 326.945312 L 403.6875 314.601562 L 388.382812 314.488281 C 387.054688 310.765625 385.109375 307.242188 382.5625 304.078125 L 390.421875 290.96875 L 380.652344 283.28125 L 369.761719 294.007812 C 366.089844 292.277344 362.203125 291.210938 358.273438 290.796875 L 354.558594 275.953125 L 342.21875 277.421875 L 342.097656 292.726562 C 338.375 294.054688 334.851562 296.003906 331.6875 298.550781 C 331.6875 298.550781 331.6875 298.550781 331.683594 298.550781 L 318.574219 290.691406 L 310.890625 300.457031 L 321.613281 311.351562 C 319.886719 315.023438 318.824219 318.90625 318.40625 322.835938 L 303.558594 326.558594 L 305.035156 338.894531 L 320.332031 339.011719 C 321.664062 342.730469 323.617188 346.257812 326.164062 349.421875 Z M 338.847656 314.546875 C 345.578125 305.996094 358.015625 304.511719 366.566406 311.238281 C 375.117188 317.96875 376.597656 330.402344 369.867188 338.953125 C 363.140625 347.503906 350.710938 348.988281 342.160156 342.261719 C 333.605469 335.53125 332.121094 323.097656 338.847656 314.546875 Z M 338.847656 314.546875 " fill-opacity="1" fill-rule="nonzero"/></g></g></g><g clip-path="url(#67314177e7)"><g clip-path="url(#97d17d5b2a)"><g clip-path="url(#58459b0479)"><path fill="#e0a11b" d="M 378.097656 427.726562 L 364.191406 421.351562 C 364.496094 417.414062 364.160156 413.398438 363.136719 409.464844 L 375.675781 400.726562 L 369.914062 389.71875 L 355.582031 395.039062 C 354.035156 393.238281 352.332031 391.609375 350.496094 390.171875 C 349.199219 389.152344 347.832031 388.226562 346.417969 387.402344 L 349.105469 372.339844 L 337.25 368.628906 L 330.871094 382.539062 C 326.929688 382.230469 322.917969 382.5625 318.984375 383.59375 L 310.242188 371.050781 L 299.234375 376.816406 L 304.558594 391.152344 C 301.472656 393.796875 298.910156 396.898438 296.917969 400.308594 L 281.855469 397.625 L 278.148438 409.484375 L 292.058594 415.855469 C 292.058594 415.855469 292.058594 415.859375 292.058594 415.859375 C 291.75 419.796875 292.089844 423.808594 293.109375 427.734375 C 293.109375 427.738281 293.113281 427.738281 293.113281 427.738281 L 280.574219 436.480469 L 286.335938 447.492188 L 300.667969 442.167969 C 302.199219 443.960938 303.890625 445.574219 305.707031 447.003906 L 305.75 447.039062 C 307.046875 448.058594 308.410156 448.980469 309.824219 449.804688 L 307.140625 464.871094 L 319 468.578125 L 325.378906 454.660156 C 329.308594 454.972656 333.328125 454.644531 337.257812 453.617188 L 345.996094 466.148438 L 357.007812 460.390625 L 351.6875 446.058594 C 354.773438 443.414062 357.332031 440.3125 359.320312 436.898438 L 374.390625 439.585938 Z M 310.632812 427.757812 C 305.59375 418.117188 309.332031 406.167969 318.96875 401.117188 C 326.054688 397.40625 334.402344 398.445312 340.328125 403.09375 L 340.351562 403.113281 C 342.464844 404.777344 344.28125 406.910156 345.609375 409.449219 C 349.328125 416.554688 348.277344 424.90625 343.613281 430.832031 C 341.945312 432.949219 339.8125 434.761719 337.273438 436.089844 C 330.1875 439.796875 321.84375 438.761719 315.921875 434.117188 C 313.789062 432.4375 311.96875 430.304688 310.632812 427.757812 Z M 310.632812 427.757812 " fill-opacity="1" fill-rule="nonzero"/></g></g></g><g clip-path="url(#3b5218251f)"><g clip-path="url(#d0e2e13897)"><g clip-path="url(#d57c8bd0bb)"><path fill="#338b8c" d="M 422.039062 435.382812 C 424.152344 434.421875 426.136719 433.210938 427.964844 431.777344 L 436.6875 436.117188 L 444.015625 426.085938 L 437.222656 419.09375 C 438.042969 416.914062 438.589844 414.65625 438.855469 412.347656 L 448.105469 409.246094 L 446.191406 396.96875 L 436.4375 396.828125 C 435.476562 394.714844 434.265625 392.734375 432.832031 390.910156 L 437.175781 382.179688 L 433.246094 379.3125 L 427.140625 374.851562 L 420.152344 381.640625 C 417.96875 380.828125 415.710938 380.277344 413.402344 380.003906 L 410.304688 370.761719 L 398.027344 372.675781 L 397.886719 382.429688 C 395.773438 383.390625 393.78125 384.601562 391.957031 386.039062 L 383.226562 381.695312 L 375.898438 391.730469 L 382.703125 398.730469 C 381.878906 400.902344 381.332031 403.164062 381.058594 405.464844 L 371.816406 408.566406 L 373.734375 420.84375 L 383.484375 420.980469 C 384.445312 423.101562 385.652344 425.085938 387.089844 426.90625 L 382.75 435.636719 L 386.675781 438.5 L 392.785156 442.960938 L 399.773438 436.171875 C 401.949219 436.980469 404.210938 437.535156 406.515625 437.804688 C 406.519531 437.804688 406.519531 437.804688 406.519531 437.804688 L 409.621094 447.050781 L 421.898438 445.136719 L 422.035156 435.386719 C 422.035156 435.386719 422.035156 435.386719 422.039062 435.382812 Z M 411.90625 421.402344 C 408.570312 421.925781 405.226562 421.113281 402.503906 419.121094 C 402.378906 419.03125 402.261719 418.9375 402.144531 418.84375 C 399.617188 416.863281 397.957031 414.042969 397.460938 410.855469 C 396.941406 407.515625 397.753906 404.175781 399.75 401.449219 C 401.742188 398.722656 404.671875 396.929688 408.011719 396.410156 C 411.347656 395.890625 414.6875 396.699219 417.421875 398.691406 C 417.539062 398.78125 417.664062 398.878906 417.78125 398.96875 C 417.785156 398.972656 417.785156 398.972656 417.789062 398.976562 C 420.308594 400.957031 421.960938 403.773438 422.457031 406.957031 C 422.976562 410.292969 422.164062 413.636719 420.175781 416.367188 C 418.183594 419.089844 415.246094 420.878906 411.90625 421.402344 Z M 411.90625 421.402344 " fill-opacity="1" fill-rule="nonzero"/></g></g></g></svg>