<svg xmlns="http://www.w3.org/2000/svg" xmlns:xlink="http://www.w3.org/1999/xlink" width="539" zoomAndPan="magnify" viewBox="0 0 404.25 284.250005" height="379" preserveAspectRatio="xMidYMid meet" version="1.0"><defs><clipPath id="0ed669b2bb"><path d="M 0.15625 0 L 402.597656 0 L 402.597656 255.824219 L 0.15625 255.824219 Z M 0.15625 0 " clip-rule="nonzero"/></clipPath><clipPath id="b734db0d8a"><path d="M 130 42 L 232 42 L 232 145 L 130 145 Z M 130 42 " clip-rule="nonzero"/></clipPath><clipPath id="763f2f60dc"><path d="M 172.433594 22.730469 L 315.875 135.589844 L 199.777344 283.148438 L 56.335938 170.289062 Z M 172.433594 22.730469 " clip-rule="nonzero"/></clipPath><clipPath id="9dd873f13e"><path d="M 172.433594 22.730469 L 315.875 135.589844 L 199.777344 283.148438 L 56.335938 170.289062 Z M 172.433594 22.730469 " clip-rule="nonzero"/></clipPath><clipPath id="495cc69da2"><path d="M 104 135 L 205 135 L 205 235 L 104 235 Z M 104 135 " clip-rule="nonzero"/></clipPath><clipPath id="e303d58bfb"><path d="M 172.433594 22.730469 L 315.875 135.589844 L 199.777344 283.148438 L 56.335938 170.289062 Z M 172.433594 22.730469 " clip-rule="nonzero"/></clipPath><clipPath id="9a28c2a999"><path d="M 172.433594 22.730469 L 315.875 135.589844 L 199.777344 283.148438 L 56.335938 170.289062 Z M 172.433594 22.730469 " clip-rule="nonzero"/></clipPath><clipPath id="132a952f34"><path d="M 198 137 L 275 137 L 275 214 L 198 214 Z M 198 137 " clip-rule="nonzero"/></clipPath><clipPath id="5bdc309345"><path d="M 172.433594 22.730469 L 315.875 135.589844 L 199.777344 283.148438 L 56.335938 170.289062 Z M 172.433594 22.730469 " clip-rule="nonzero"/></clipPath><clipPath id="cff9360126"><path d="M 172.433594 22.730469 L 315.875 135.589844 L 199.777344 283.148438 L 56.335938 170.289062 Z M 172.433594 22.730469 " clip-rule="nonzero"/></clipPath></defs><g clip-path="url(#0ed669b2bb)"><path fill="#000000" d="M 331.238281 255.429688 L 70.875 255.429688 C 31.660156 255.429688 0.15625 223.871094 0.15625 184.585938 C 0.15625 146.589844 30.371094 115.03125 68.300781 113.742188 C 67.660156 108.589844 67.015625 103.441406 67.015625 97.644531 C 67.015625 43.542969 110.730469 0.394531 164.089844 0.394531 C 196.234375 0.394531 225.804688 16.496094 244.449219 42.257812 C 255.378906 36.460938 267.59375 33.242188 280.449219 33.242188 C 322.238281 33.242188 356.953125 67.375 356.953125 109.878906 C 356.953125 112.457031 356.953125 115.675781 356.308594 118.253906 C 383.308594 128.554688 402.597656 154.960938 402.597656 184.585938 C 401.953125 223.871094 369.808594 255.429688 331.238281 255.429688 Z M 70.875 134.996094 C 43.230469 134.996094 21.371094 157.539062 21.371094 184.585938 C 21.371094 211.636719 43.875 234.175781 70.875 234.175781 L 331.238281 234.175781 C 358.878906 234.175781 380.738281 211.636719 380.738281 184.585938 C 380.738281 161.402344 364.023438 140.792969 341.523438 135.640625 L 330.59375 133.066406 L 333.164062 122.117188 C 334.453125 117.609375 335.09375 113.101562 335.09375 108.589844 C 335.09375 78.324219 310.664062 53.207031 279.808594 53.207031 C 267.59375 53.207031 256.664062 57.070312 247.019531 64.152344 L 237.378906 71.882812 L 231.59375 62.222656 C 218.089844 37.105469 192.375 21.648438 164.089844 21.648438 C 122.304688 21.648438 88.230469 55.78125 88.230469 97.644531 C 88.230469 105.371094 89.515625 113.101562 92.089844 120.828125 L 96.589844 134.996094 Z M 70.875 134.996094 " fill-opacity="1" fill-rule="nonzero"/></g><g clip-path="url(#b734db0d8a)"><g clip-path="url(#763f2f60dc)"><g clip-path="url(#9dd873f13e)"><path fill="#d73f23" d="M 152.746094 115.96875 L 144.90625 129.042969 L 154.648438 136.707031 L 165.511719 126.011719 C 169.175781 127.738281 173.050781 128.796875 176.964844 129.21875 L 180.671875 144.023438 L 192.984375 142.554688 L 193.097656 127.296875 C 196.808594 125.96875 200.324219 124.019531 203.480469 121.480469 L 216.554688 129.320312 L 224.21875 119.582031 L 213.523438 108.71875 C 215.25 105.050781 216.3125 101.175781 216.734375 97.257812 L 231.539062 93.550781 L 230.070312 81.242188 L 214.804688 81.125 C 213.480469 77.414062 211.539062 73.898438 208.996094 70.742188 L 216.835938 57.667969 L 207.09375 50.003906 L 196.234375 60.699219 C 192.566406 58.972656 188.691406 57.910156 184.773438 57.496094 L 181.066406 42.691406 L 168.761719 44.15625 L 168.636719 59.421875 C 164.925781 60.746094 161.410156 62.691406 158.253906 65.230469 L 145.179688 57.394531 L 137.515625 67.132812 L 148.210938 78 C 146.484375 81.664062 145.425781 85.535156 145.011719 89.453125 L 130.203125 93.164062 L 131.675781 105.46875 L 146.933594 105.585938 C 148.261719 109.296875 150.207031 112.8125 152.746094 115.96875 Z M 165.398438 81.183594 C 172.109375 72.65625 184.515625 71.175781 193.042969 77.886719 C 201.574219 84.597656 203.050781 97 196.339844 105.527344 C 189.628906 114.058594 177.230469 115.535156 168.699219 108.824219 C 160.171875 102.113281 158.6875 89.714844 165.398438 81.183594 Z M 165.398438 81.183594 " fill-opacity="1" fill-rule="nonzero"/></g></g></g><g clip-path="url(#495cc69da2)"><g clip-path="url(#e303d58bfb)"><g clip-path="url(#9a28c2a999)"><path fill="#e0a11b" d="M 204.546875 194.066406 L 190.671875 187.707031 C 190.976562 183.78125 190.644531 179.777344 189.621094 175.855469 L 202.128906 167.136719 L 196.382812 156.160156 L 182.089844 161.464844 C 180.546875 159.667969 178.847656 158.042969 177.015625 156.609375 C 175.722656 155.59375 174.359375 154.671875 172.949219 153.847656 L 175.628906 138.828125 L 163.804688 135.125 L 157.441406 148.996094 C 153.511719 148.691406 149.511719 149.023438 145.589844 150.050781 L 136.867188 137.542969 L 125.886719 143.289062 L 131.199219 157.585938 C 128.125 160.226562 125.566406 163.320312 123.582031 166.71875 L 108.558594 164.042969 L 104.859375 175.871094 L 118.730469 182.226562 C 118.730469 182.230469 118.730469 182.230469 118.730469 182.230469 C 118.425781 186.160156 118.761719 190.15625 119.78125 194.074219 C 119.78125 194.078125 119.78125 194.078125 119.78125 194.078125 L 107.277344 202.800781 L 113.023438 213.777344 L 127.320312 208.46875 C 128.847656 210.261719 130.53125 211.867188 132.34375 213.292969 L 132.390625 213.328125 C 133.683594 214.347656 135.039062 215.261719 136.453125 216.085938 L 133.773438 231.113281 L 145.601562 234.8125 L 151.964844 220.929688 C 155.882812 221.242188 159.890625 220.914062 163.8125 219.890625 L 172.53125 232.390625 L 183.511719 226.644531 L 178.207031 212.351562 C 181.28125 209.714844 183.832031 206.617188 185.820312 203.214844 L 200.847656 205.894531 Z M 137.257812 194.097656 C 132.230469 184.484375 135.957031 172.5625 145.570312 167.527344 C 152.640625 163.828125 160.964844 164.863281 166.875 169.5 L 166.894531 169.515625 C 169.007812 171.179688 170.816406 173.304688 172.140625 175.839844 C 175.851562 182.921875 174.800781 191.253906 170.152344 197.164062 C 168.488281 199.273438 166.363281 201.082031 163.828125 202.410156 C 156.757812 206.109375 148.441406 205.074219 142.53125 200.4375 C 140.40625 198.765625 138.589844 196.640625 137.257812 194.097656 Z M 137.257812 194.097656 " fill-opacity="1" fill-rule="nonzero"/></g></g></g><g clip-path="url(#132a952f34)"><g clip-path="url(#5bdc309345)"><g clip-path="url(#cff9360126)"><path fill="#338b8c" d="M 248.371094 201.703125 C 250.476562 200.746094 252.457031 199.539062 254.277344 198.109375 C 254.28125 198.109375 254.28125 198.109375 254.28125 198.105469 L 262.980469 202.4375 L 270.289062 192.429688 L 263.515625 185.457031 C 264.332031 183.285156 264.878906 181.03125 265.144531 178.730469 L 274.367188 175.636719 L 272.457031 163.390625 L 262.734375 163.25 C 261.773438 161.144531 260.566406 159.164062 259.132812 157.347656 L 263.46875 148.636719 L 259.550781 145.78125 L 253.457031 141.332031 L 246.488281 148.101562 C 244.3125 147.292969 242.0625 146.742188 239.757812 146.46875 L 236.667969 137.253906 L 224.421875 139.160156 L 224.28125 148.886719 C 222.171875 149.847656 220.1875 151.054688 218.367188 152.488281 L 209.660156 148.15625 L 202.351562 158.167969 L 209.136719 165.144531 C 208.316406 167.3125 207.773438 169.570312 207.5 171.867188 L 198.277344 174.960938 L 200.195312 187.203125 L 209.917969 187.339844 C 210.875 189.453125 212.082031 191.429688 213.515625 193.25 L 209.183594 201.953125 L 213.101562 204.8125 L 219.195312 209.261719 L 226.164062 202.488281 C 228.332031 203.296875 230.589844 203.851562 232.890625 204.121094 L 235.984375 213.339844 L 248.230469 211.429688 L 248.367188 201.707031 C 248.367188 201.707031 248.367188 201.707031 248.371094 201.703125 Z M 238.261719 187.757812 C 234.9375 188.28125 231.605469 187.472656 228.886719 185.484375 C 228.761719 185.394531 228.648438 185.300781 228.527344 185.207031 C 226.007812 183.234375 224.351562 180.417969 223.859375 177.238281 C 223.339844 173.910156 224.148438 170.578125 226.136719 167.855469 C 228.125 165.140625 231.050781 163.351562 234.378906 162.835938 C 237.707031 162.316406 241.039062 163.125 243.765625 165.109375 C 243.882812 165.195312 244.007812 165.292969 244.125 165.386719 C 244.128906 165.386719 244.128906 165.386719 244.132812 165.390625 C 246.644531 167.367188 248.292969 170.175781 248.789062 173.351562 C 249.304688 176.679688 248.496094 180.015625 246.511719 182.734375 C 244.523438 185.453125 241.597656 187.238281 238.261719 187.757812 Z M 238.261719 187.757812 " fill-opacity="1" fill-rule="nonzero"/></g></g></g></svg>